<svg xmlns="http://www.w3.org/2000/svg" width="256" height="256" viewBox="0 0 256 256" role="img" aria-label="Phone call">
<defs>
<linearGradient id="g" x1="16" y1="16" x2="240" y2="240" gradientUnits="userSpaceOnUse">
<stop offset="0%" stop-color="#005BFF"/>
<stop offset="52%" stop-color="#2563FF"/>
<stop offset="100%" stop-color="#7C3AED"/>
</linearGradient>
<filter id="softShadow" x="-20%" y="-20%" width="140%" height="140%">
<feDropShadow dx="0" dy="8" stdDeviation="8" flood-color="#2563FF" flood-opacity="0.18"/>
</filter>
</defs>
<g filter="url(#softShadow)" stroke="url(#g)" stroke-width="14" stroke-linecap="round" stroke-linejoin="round" fill="none">
<path d="M75 44 L103 72 L83 99 C99 131 123 155 157 173 L184 153 L212 181 C217 186 217 194 212 199 L194 217 C185 226 169 224 153 217 C99 194 62 157 39 103 C32 87 30 71 39 62 L57 44 C62 39 70 39 75 44 Z"/>
</g>
</svg>