<svg xmlns="http://www.w3.org/2000/svg" width="256" height="256" viewBox="0 0 256 256" role="img" aria-label="Route tracking">
<defs>
<linearGradient id="g" x1="16" y1="16" x2="240" y2="240" gradientUnits="userSpaceOnUse">
<stop offset="0%" stop-color="#005BFF"/>
<stop offset="52%" stop-color="#2563FF"/>
<stop offset="100%" stop-color="#7C3AED"/>
</linearGradient>
<filter id="softShadow" x="-20%" y="-20%" width="140%" height="140%">
<feDropShadow dx="0" dy="8" stdDeviation="8" flood-color="#2563FF" flood-opacity="0.18"/>
</filter>
</defs>
<g filter="url(#softShadow)" stroke="url(#g)" stroke-width="14" stroke-linecap="round" stroke-linejoin="round" fill="none">
<path d="M50 183 C82 150 83 94 128 121 C172 148 174 75 208 50" stroke-dasharray="16 16"/><path d="M66 184 C66 196 50 214 50 214 C50 214 34 196 34 184 C34 175 41 168 50 168 C59 168 66 175 66 184 Z"/><path d="M222 50 C222 62 206 80 206 80 C206 80 190 62 190 50 C190 41 197 34 206 34 C215 34 222 41 222 50 Z"/><circle cx="50" cy="184" r="2"/><circle cx="206" cy="50" r="2"/>
</g>
</svg>