<svg xmlns="http://www.w3.org/2000/svg" width="256" height="256" viewBox="0 0 256 256" role="img" aria-label="WhatsApp">
<defs>
<linearGradient id="g" x1="16" y1="16" x2="240" y2="240" gradientUnits="userSpaceOnUse">
<stop offset="0%" stop-color="#005BFF"/>
<stop offset="52%" stop-color="#2563FF"/>
<stop offset="100%" stop-color="#7C3AED"/>
</linearGradient>
<filter id="softShadow" x="-20%" y="-20%" width="140%" height="140%">
<feDropShadow dx="0" dy="8" stdDeviation="8" flood-color="#2563FF" flood-opacity="0.18"/>
</filter>
</defs>
<circle cx="128" cy="128" r="88" fill="url(#g)" filter="url(#softShadow)"/><path d="M88 175 L96 145 C88 132 86 118 91 104 C102 71 139 58 168 78 C197 98 201 140 177 165 C158 184 128 187 106 175 Z" fill="none" stroke="#FFFFFF" stroke-width="12" stroke-linecap="round" stroke-linejoin="round"/><path d="M115 101 C112 104 110 109 113 116 C120 132 132 144 149 151 C156 154 161 151 164 147 L170 139" fill="none" stroke="#FFFFFF" stroke-width="12" stroke-linecap="round" stroke-linejoin="round"/>
</svg>